# xmcd CD database file
#
# Track frame offsets:
#	150
#	18934
#	38557
#	58713
#	79633
#	96257
#	116628
#	130738
#	147432
#
# Disc length: 2239 seconds
#
# Revision: 5
# Processed by: cddbd v1.5.2PL0 Copyright (c) Steve Scherf et al.
# Submitted via: CDex 1.70beta2
#
DISCID=7008bd09
DTITLE=Beyonce - I Am... Sasha Fierce [Disc1]
DYEAR=2008
DGENRE=R&B
TTITLE0=If I Were A Boy
TTITLE1=Halo
TTITLE2=Disappear
TTITLE3=Broken-Hearted Girl
TTITLE4=Ave Maria
TTITLE5=Smash Into You
TTITLE6=Satellites
TTITLE7=That's Why You're Beautiful
TTITLE8=Save The Hero
EXTD=YEAR: 2008
EXTT0=
EXTT1=
EXTT2=
EXTT3=
EXTT4=
EXTT5=
EXTT6=
EXTT7=
EXTT8=
PLAYORDER=
